<?xml version="1.0" standalone="no"?><!DOCTYPE svg PUBLIC "-//W3C//DTD SVG 1.1//EN" "http://www.w3.org/Graphics/SVG/1.1/DTD/svg11.dtd"><svg t="1616171237836" class="icon" viewBox="0 0 1157 1024" version="1.1" xmlns="http://www.w3.org/2000/svg" p-id="6704" width="18" height="20" xmlns:xlink="http://www.w3.org/1999/xlink"><defs><style type="text/css"></style></defs><path d="M66.998059 0.000079h1023.444907A67.077347 67.077347 0 0 1 1157.599601 66.998138a67.077347 67.077347 0 0 1-67.077347 67.077347H66.998059A67.077347 67.077347 0 0 1 0 66.998138 67.077347 67.077347 0 0 1 66.998059 0.000079zM458.282582 324.445118h632.160384a67.156634 67.156634 0 0 1 67.156635 67.156634 67.077347 67.077347 0 0 1-67.077347 67.077347H458.282582a67.077347 67.077347 0 0 1-67.077347-67.077347 67.156634 67.156634 0 0 1 67.077347-67.156634z m-67.077347 321.03567a67.870223 67.870223 0 0 1 67.949511-67.870223l631.28822 0.792876a67.077347 67.077347 0 0 1 67.156635 67.077347 67.077347 67.077347 0 0 1-67.077347 67.077347H458.282582a67.077347 67.077347 0 0 1-67.077347-67.077347zM0 956.922653a67.156634 67.156634 0 0 1 67.156634-67.156634h1023.207045a67.156634 67.156634 0 0 1 67.156634 67.156634 67.156634 67.156634 0 0 1-67.156634 67.077347H67.156634A67.156634 67.156634 0 0 1 0 956.922653z m223.11543-640.406299L19.742623 488.491253a22.359116 22.359116 0 0 0-0.475726 33.776537l201.390616 179.110787A23.786293 23.786293 0 0 0 261.649225 684.252446V335.783251a23.786293 23.786293 0 0 0-38.533795-19.266897z" fill="#777777" p-id="6705"></path></svg>