<svg t="1616172917610" class="icon" viewBox="0 0 1024 1024" version="1.1" xmlns="http://www.w3.org/2000/svg" p-id="25157" width="20" height="20"><path d="M914.4 674.9H394.7c-25.2 0-45.6-22-45.6-48.9s20.4-48.9 45.6-48.9h519.7c25.2 0 45.6 22 45.6 48.9s-20.4 48.9-45.6 48.9z m0-228.1H394.7c-25.2 0-45.6-22-45.6-48.9s20.4-48.9 45.6-48.9h519.7c25.2 0 45.6 22 45.6 48.9s-20.4 48.9-45.6 48.9z m-3.3-219.9H115.3c-26.9 0-50.5-20.4-51.3-47.2-0.8-27.7 21.2-50.5 48.9-50.5h795.8c26.9 0 50.5 20.4 51.3 47.2 0.8 27.7-21.2 50.5-48.9 50.5zM64 674.1V349.9L291.3 512 64 674.1c0 0.8 0 0.8 0 0z m48.9 123h795.8c26.9 0 50.5 20.4 51.3 47.2 0.8 27.7-21.2 50.5-48.9 50.5H115.3c-26.9 0-50.5-20.4-51.3-47.2-0.8-27.7 21.2-50.5 48.9-50.5z" p-id="25158" fill="#777777"></path></svg>