<svg t="1616335384433" class="icon" viewBox="0 0 1024 1024" version="1.1" xmlns="http://www.w3.org/2000/svg" p-id="62422" width="16" height="16"><path d="M72.975912 68.256434h878.047152c35.085006 0 63.777431 28.692425 63.777432 63.777431v93.303849c0 17.542503-14.346724 31.889227-31.876948 31.889228H41.076452c-17.53227 0-31.877971-14.346724-31.877971-31.889228v-93.303849c0-35.086029 28.692425-63.777431 63.777431-63.777431z" fill="#90ee90" p-id="62423"></path><path d="M71.635384 317.9713h880.727185v574.017348c0 35.063517-28.691402 63.755942-63.754918 63.755942H135.391326c-35.063517 0-63.754919-28.692425-63.754919-63.755942V317.9713h-0.001023zM409.086301 446.196426c-18.563761 0-33.745501 15.191973-33.745501 33.745501 0 18.564784 15.180717 33.745501 33.745501 33.745502h205.826374c18.564784 0 33.745501-15.180717 33.745501-33.745502 0-18.553528-15.180717-33.745501-33.745501-33.745501H409.086301z" fill="#90ee90" p-id="62424"></path></svg>